<svg id="visual" viewBox="0 0 900 300" width="900" height="300" xmlns="http://www.w3.org/2000/svg" xmlns:xlink="http://www.w3.org/1999/xlink" version="1.1"><rect x="0" y="0" width="900" height="300" fill="#202731"></rect><g transform="translate(468.87313344397296 138.67646153210075)"><path d="M69.7 -123.3C86.5 -111.1 93.5 -84.6 100.4 -61.6C107.3 -38.7 114.2 -19.3 110.9 -1.9C107.7 15.6 94.5 31.3 83.5 47.3C72.6 63.3 64.1 79.7 50.5 97.6C37 115.4 18.5 134.7 -6.2 145.5C-31 156.4 -62 158.7 -87.7 147.9C-113.4 137.1 -133.8 113 -141.6 86.2C-149.4 59.3 -144.7 29.7 -146.1 -0.8C-147.5 -31.2 -154.9 -62.5 -142.1 -80.7C-129.3 -98.9 -96.1 -104 -69.1 -110.2C-42 -116.4 -21 -123.7 2.7 -128.5C26.5 -133.2 53 -135.5 69.7 -123.3" fill="#0066cc"></path></g></svg>