<svg id="visual" viewBox="0 0 900 300" width="900" height="300" xmlns="http://www.w3.org/2000/svg" xmlns:xlink="http://www.w3.org/1999/xlink" version="1.1"><rect x="0" y="0" width="900" height="300" fill="#202731"></rect><g transform="translate(454.2743988400256 161.25662273260434)"><path d="M75.2 -129.5C96.7 -117.8 112.9 -96.1 121.8 -72.9C130.7 -49.7 132.3 -24.8 124.4 -4.6C116.4 15.6 98.8 31.3 87.1 49.7C75.5 68.2 69.7 89.5 56.2 102.7C42.7 115.9 21.3 121 1.6 118.2C-18.2 115.5 -36.3 104.9 -63.4 99.6C-90.5 94.2 -126.4 94 -135.5 78.2C-144.6 62.5 -126.8 31.3 -121.4 3.1C-116 -25 -122.9 -50 -116.5 -70.4C-110.1 -90.7 -90.3 -106.4 -68.7 -118.1C-47 -129.7 -23.5 -137.4 1.7 -140.3C26.8 -143.1 53.7 -141.3 75.2 -129.5" fill="#0066cc"></path></g></svg>