<svg id="visual" viewBox="0 0 900 300" width="900" height="300" xmlns="http://www.w3.org/2000/svg" xmlns:xlink="http://www.w3.org/1999/xlink" version="1.1"><rect x="0" y="0" width="900" height="300" fill="#202731"></rect><path d="M0 99L18.8 100.7C37.7 102.3 75.3 105.7 112.8 101.5C150.3 97.3 187.7 85.7 225.2 89C262.7 92.3 300.3 110.7 337.8 110C375.3 109.3 412.7 89.7 450.2 89C487.7 88.3 525.3 106.7 562.8 111.2C600.3 115.7 637.7 106.3 675.2 97.2C712.7 88 750.3 79 787.8 80.3C825.3 81.7 862.7 93.3 881.3 99.2L900 105L900 301L881.3 301C862.7 301 825.3 301 787.8 301C750.3 301 712.7 301 675.2 301C637.7 301 600.3 301 562.8 301C525.3 301 487.7 301 450.2 301C412.7 301 375.3 301 337.8 301C300.3 301 262.7 301 225.2 301C187.7 301 150.3 301 112.8 301C75.3 301 37.7 301 18.8 301L0 301Z" fill="#002448"></path><path d="M0 127L18.8 130.7C37.7 134.3 75.3 141.7 112.8 142C150.3 142.3 187.7 135.7 225.2 132.8C262.7 130 300.3 131 337.8 128.8C375.3 126.7 412.7 121.3 450.2 123.3C487.7 125.3 525.3 134.7 562.8 136.7C600.3 138.7 637.7 133.3 675.2 131C712.7 128.7 750.3 129.3 787.8 128.7C825.3 128 862.7 126 881.3 125L900 124L900 301L881.3 301C862.7 301 825.3 301 787.8 301C750.3 301 712.7 301 675.2 301C637.7 301 600.3 301 562.8 301C525.3 301 487.7 301 450.2 301C412.7 301 375.3 301 337.8 301C300.3 301 262.7 301 225.2 301C187.7 301 150.3 301 112.8 301C75.3 301 37.7 301 18.8 301L0 301Z" fill="#0f1e39"></path><path d="M0 153L18.8 153.8C37.7 154.7 75.3 156.3 112.8 160.3C150.3 164.3 187.7 170.7 225.2 169.7C262.7 168.7 300.3 160.3 337.8 158.5C375.3 156.7 412.7 161.3 450.2 166.3C487.7 171.3 525.3 176.7 562.8 175.5C600.3 174.3 637.7 166.7 675.2 165.5C712.7 164.3 750.3 169.7 787.8 175.5C825.3 181.3 862.7 187.7 881.3 190.8L900 194L900 301L881.3 301C862.7 301 825.3 301 787.8 301C750.3 301 712.7 301 675.2 301C637.7 301 600.3 301 562.8 301C525.3 301 487.7 301 450.2 301C412.7 301 375.3 301 337.8 301C300.3 301 262.7 301 225.2 301C187.7 301 150.3 301 112.8 301C75.3 301 37.7 301 18.8 301L0 301Z" fill="#13192b"></path><path d="M0 210L18.8 213C37.7 216 75.3 222 112.8 221.2C150.3 220.3 187.7 212.7 225.2 211C262.7 209.3 300.3 213.7 337.8 213C375.3 212.3 412.7 206.7 450.2 204.2C487.7 201.7 525.3 202.3 562.8 202.3C600.3 202.3 637.7 201.7 675.2 200.7C712.7 199.7 750.3 198.3 787.8 197.8C825.3 197.3 862.7 197.7 881.3 197.8L900 198L900 301L881.3 301C862.7 301 825.3 301 787.8 301C750.3 301 712.7 301 675.2 301C637.7 301 600.3 301 562.8 301C525.3 301 487.7 301 450.2 301C412.7 301 375.3 301 337.8 301C300.3 301 262.7 301 225.2 301C187.7 301 150.3 301 112.8 301C75.3 301 37.7 301 18.8 301L0 301Z" fill="#13141e"></path><path d="M0 245L18.8 247C37.7 249 75.3 253 112.8 251.7C150.3 250.3 187.7 243.7 225.2 240C262.7 236.3 300.3 235.7 337.8 236.8C375.3 238 412.7 241 450.2 240.8C487.7 240.7 525.3 237.3 562.8 240.3C600.3 243.3 637.7 252.7 675.2 256.2C712.7 259.7 750.3 257.3 787.8 253.8C825.3 250.3 862.7 245.7 881.3 243.3L900 241L900 301L881.3 301C862.7 301 825.3 301 787.8 301C750.3 301 712.7 301 675.2 301C637.7 301 600.3 301 562.8 301C525.3 301 487.7 301 450.2 301C412.7 301 375.3 301 337.8 301C300.3 301 262.7 301 225.2 301C187.7 301 150.3 301 112.8 301C75.3 301 37.7 301 18.8 301L0 301Z" fill="#0f0f10"></path></svg>